<svg xmlns="http://www.w3.org/2000/svg" viewBox="0 0 96 96" role="img" aria-labelledby="title desc">
  <title id="title">DS</title>
  <desc id="desc">Marca personal de Dylan Salcedo</desc>
  <defs>
    <linearGradient id="g" x1="10" y1="8" x2="86" y2="88" gradientUnits="userSpaceOnUse">
      <stop stop-color="#7dd3fc"/>
      <stop offset="0.48" stop-color="#3b82f6"/>
      <stop offset="1" stop-color="#1d4ed8"/>
    </linearGradient>
  </defs>
  <rect x="4" y="4" width="88" height="88" rx="24" fill="#07111f" stroke="#1f3d66" stroke-width="2"/>
  <path d="M23 25h20c17 0 28 8 28 23S60 71 43 71H23V25Zm18 35c10 0 16-4 16-12s-6-12-16-12h-5v24h5Z" fill="url(#g)"/>
  <path d="M68 30c-3-4-8-6-14-6-8 0-13 4-13 10 0 7 6 9 13 11 6 2 9 3 9 7 0 3-3 5-8 5-6 0-11-2-15-6l-7 9c5 7 13 11 22 11 13 0 21-7 21-18 0-10-8-13-17-16-5-2-8-3-8-6 0-2 2-4 6-4 4 0 8 2 11 5l6-9-6-3Z" fill="#e8f2ff" opacity=".96"/>
  <circle cx="77" cy="19" r="4" fill="#60a5fa"/>
</svg>
